<svg width="174" height="174" viewBox="0 0 174 174" fill="none" xmlns="http://www.w3.org/2000/svg">
<circle cx="87" cy="87" r="85" stroke="white" stroke-width="4"/>
<path d="M110.3 122H63.7002C57.2608 122 52 116.739 52 110.3V63.7002C52 57.2608 57.2608 52 63.7002 52H110.3C116.739 52 122 57.2608 122 63.7002V110.3C122 116.768 116.768 122 110.3 122Z" stroke="white" stroke-width="4"/>
<path d="M74.308 99.7208C77.7002 103.113 82.2136 104.982 87.0144 104.982C91.8152 104.982 96.2998 103.113 99.7208 99.7208C103.113 96.3286 104.982 91.8152 104.982 87.0144C104.982 82.2136 103.113 77.7002 99.7208 74.308C96.3286 70.9158 91.8152 69.0472 87.0144 69.0472C82.2136 69.0472 77.7002 70.9158 74.308 74.308C70.9158 77.7002 69.0472 82.2136 69.0472 87.0144C69.0472 91.8152 70.9158 96.3286 74.308 99.7208Z" stroke="white" stroke-width="4"/>
<path d="M108.484 68.4568C110.389 68.4568 111.933 66.9123 111.933 65.007C111.933 63.1018 110.389 61.5573 108.484 61.5573C106.578 61.5573 105.034 63.1018 105.034 65.007C105.034 66.9123 106.578 68.4568 108.484 68.4568Z" stroke="white" stroke-width="4"/>
</svg>
