<svg width="174" height="174" viewBox="0 0 174 174" fill="none" xmlns="http://www.w3.org/2000/svg">
<circle cx="87" cy="87" r="85" stroke="white" stroke-width="4"/>
<path d="M67.8066 76.0188H53.1797V122.663H67.8066V76.0188Z" stroke="white" stroke-width="4"/>
<path d="M107.373 75.0076C106.834 74.9402 106.261 74.9065 105.688 74.8728C97.4984 74.5358 92.8812 79.389 91.2635 81.4785C90.8254 82.0515 90.6231 82.3885 90.6231 82.3885V76.1535H76.6366V122.798H90.6231H91.2635C91.2635 118.046 91.2635 113.327 91.2635 108.575C91.2635 106.014 91.2635 103.453 91.2635 100.891C91.2635 97.7231 91.0276 94.3529 92.6116 91.4545C93.9597 89.0279 96.3862 87.8146 99.1161 87.8146C107.205 87.8146 107.373 95.128 107.373 95.8021C107.373 95.8358 107.373 95.8695 107.373 95.8695V123H122V92.5666C122 82.1526 116.709 76.0187 107.373 75.0076Z" stroke="white" stroke-width="4"/>
<path d="M60.493 69.986C65.1836 69.986 68.9861 66.1836 68.9861 61.493C68.9861 56.8025 65.1836 53 60.493 53C55.8024 53 52 56.8025 52 61.493C52 66.1836 55.8024 69.986 60.493 69.986Z" stroke="white" stroke-width="4"/>
</svg>
