<svg width="180" height="180" viewBox="0 0 180 180" fill="none" xmlns="http://www.w3.org/2000/svg">
<path d="M89.9999 5.00001C69.8198 4.98938 50.2949 12.3464 34.9215 25.7538C19.5481 39.1612 9.33013 57.7432 6.09737 78.1726C2.8646 98.602 6.82811 119.544 17.2782 137.25C27.7283 154.956 43.9824 168.268 63.1301 174.803C67.3977 175.614 68.9387 172.939 68.9387 170.751V155.959C45.2301 161.227 40.3303 144.287 40.3303 144.287C38.762 138.927 35.3501 134.334 30.7282 131.36C23.0229 125.97 31.321 126.051 31.321 126.051C34.0125 126.437 36.5826 127.448 38.8354 129.007C41.0883 130.566 42.9645 132.632 44.3212 135.047C51.908 148.38 64.0785 144.53 69.0573 142.301C69.4504 137.874 71.3698 133.736 74.4708 130.63C55.5828 128.442 35.7466 120.985 35.7466 87.5916C35.6214 78.9287 38.7642 70.5511 44.5188 64.2082C41.9043 56.6967 42.2014 48.4425 45.3486 41.149C45.3486 41.149 52.4612 38.7985 68.7017 50.0647C82.6203 46.1742 97.3005 46.1742 111.219 50.0647C127.46 38.7985 134.572 41.149 134.572 41.149C137.696 48.4481 137.992 56.6929 135.402 64.2082C141.146 70.5551 144.275 78.9335 144.135 87.5916C144.135 121.066 124.378 128.401 105.371 130.59C107.41 132.709 108.981 135.253 109.977 138.05C110.972 140.847 111.369 143.832 111.14 146.8V170.71C111.14 173.587 112.681 175.735 116.988 174.763C136.116 168.202 152.345 154.876 162.77 137.168C173.196 119.46 177.138 98.5254 173.893 78.1094C170.647 57.6933 160.425 39.1275 145.055 25.733C129.685 12.3386 110.169 4.98936 89.9999 5.00001Z" stroke="white" stroke-width="4" stroke-linecap="round" stroke-linejoin="round"/>
</svg>
